<svg id="Warstwa_1" data-name="Warstwa 1" xmlns="http://www.w3.org/2000/svg" viewBox="0 0 16 16"><defs><style>.cls-1{fill:#BBBBBB;}</style></defs><title>ico</title><polygon class="cls-1" points="14.59 5 13 5 14.41 8 13 11 14.59 11 16 8 14.59 5"/><polygon class="cls-1" points="1.41 11 3 11 1.59 8 3 5 1.41 5 0 8 1.41 11"/><polygon class="cls-1" points="12 4 10.61 4 9 12 10.39 12 12 4"/><polygon class="cls-1" points="8.04 9.38 7.4 8 8.79 5 6.78 5 6 6.78 6 5 4 5 4 11 6 11 6 9.24 6.78 11 7.73 11 8.04 9.38"/></svg>